HIERARCHY
ROOT Hips
{
     OFFSET 25.34810 93.52800 -33.69530
     CHANNELS 6 Xposition Yposition Zposition Zrotation Xrotation Yrotation
     JOINT Spine
     {
          OFFSET -0.00000 11.89050 0.00000
          CHANNELS 3 Zrotation Xrotation Yrotation
          JOINT Spine1
          {
               OFFSET -0.00000 25.65740 0.12766
               CHANNELS 3 Zrotation Xrotation Yrotation
               JOINT HEad
               {
                    OFFSET -0.00000 8.73416 0.01134
                    CHANNELS 3 Zrotation Xrotation Yrotation
                    End Site
                    {
                         OFFSET -0.29000 12.77420 2.51395
                    }
               }
               JOINT LeftShoulder1
               {
                    OFFSET 8.99000 -0.36225 -0.22000
                    CHANNELS 3 Zrotation Xrotation Yrotation
                    JOINT LeftArm
                    {
                         OFFSET 10.28270 -0.00338 0.32212
                         CHANNELS 3 Zrotation Xrotation Yrotation
                         JOINT LeftForeArm
                         {
                              OFFSET 32.76690 0.09914 -1.42434
                              CHANNELS 3 Zrotation Xrotation Yrotation
                              JOINT LeftHand
                              {
                                   OFFSET 27.56430 0.08536 1.02216
                                   CHANNELS 3 Zrotation Xrotation Yrotation
                                   End Site
                                   {
                                        OFFSET 16.74430 -0.60000 1.50291
                                   }
                              }
                         }
                    }
               }
               JOINT RightShoulder
               {
                    OFFSET -8.99000 -0.36225 -0.22000
                    CHANNELS 3 Zrotation Xrotation Yrotation
                    JOINT RightArm
                    {
                         OFFSET -10.28270 -0.00338 0.32212
                         CHANNELS 3 Zrotation Xrotation Yrotation
                         JOINT RightForeArm
                         {
                              OFFSET -32.89710 0.09914 -1.42434
                              CHANNELS 3 Zrotation Xrotation Yrotation
                              JOINT RightHand
                              {
                                   OFFSET -27.49210 0.08536 1.02216
                                   CHANNELS 3 Zrotation Xrotation Yrotation
                                   End Site
                                   {
                                        OFFSET -16.63120 -0.60000 1.50291
                                   }
                              }
                         }
                    }
               }
          }
     }
     JOINT LeftUpLeg
     {
          OFFSET 8.94580 -8.66707 0.10165
          CHANNELS 3 Zrotation Xrotation Yrotation
          JOINT LeftLeg
          {
               OFFSET -0.00000 -44.42270 1.37270
               CHANNELS 3 Zrotation Xrotation Yrotation
               JOINT LeftFoot
               {
                    OFFSET -0.25355 -42.09240 -1.46059
                    CHANNELS 3 Zrotation Xrotation Yrotation
                    JOINT LeftToes
                    {
                         OFFSET -0.04000 -4.41509 8.49910
                         CHANNELS 3 Zrotation Xrotation Yrotation
                         End Site
                         {
                              OFFSET 0.08000 -0.04745 9.77979
                         }
                    }
               }
          }
     }
     JOINT RightUpLeg
     {
          OFFSET -8.94580 -8.66707 0.10165
          CHANNELS 3 Zrotation Xrotation Yrotation
          JOINT RightLeg
          {
               OFFSET 0.00000 -44.42270 1.37270
               CHANNELS 3 Zrotation Xrotation Yrotation
               JOINT RightFoot
               {
                    OFFSET 0.25355 -42.09240 -1.46059
                    CHANNELS 3 Zrotation Xrotation Yrotation
                    JOINT RightToes
                    {
                         OFFSET 0.04000 -4.41509 8.49910
                         CHANNELS 3 Zrotation Xrotation Yrotation
                         End Site
                         {
                              OFFSET -0.08000 -0.13745 9.77979
                         }
                    }
               }
          }
     }
}
MOTION
Frames: 17
Frame Time: 0.01667
25.34810 93.52800 -33.69530 -11.90760 -14.14050 -28.56740 -1.20419 14.01820 -0.43948 -1.67857 28.29130 0.95191 11.05990 -23.72020 13.60190 -0.00000 0.00000 -0.00000 -94.62900 -53.63400 -75.63550 -33.09700 37.74720 -77.63840 14.57180 8.04450 -11.03350 15.19110 1.13380 3.79280 81.50480 -4.92106 69.31650 9.54972 28.97410 94.14740 26.08440 12.21230 5.53541 21.50580 -5.34019 -14.26750 -23.61920 12.27110 64.61540 3.00670 14.26500 -0.67407 1.67675 -29.40180 -69.07830 -23.69500 15.82740 16.28040 40.96210 19.32830 -27.29310 -29.45860 5.50196 3.37236 7.28711 -48.80970 8.91308 
24.91620 93.30030 -34.53620 -11.58410 -14.37740 -27.63620 -1.07439 14.16850 -0.30469 -1.79262 28.58630 1.37785 10.70590 -24.53650 12.27240 -0.00000 0.00000 -0.00000 -93.17600 -54.17770 -72.51940 -34.28560 38.06110 -77.44680 14.15880 8.09963 -11.03980 15.13560 1.06414 3.41659 81.03810 -5.05867 69.86140 9.28623 28.63650 93.21190 26.44060 12.25520 5.58226 21.62570 -5.86925 -14.66010 -23.62500 11.83410 63.91460 3.60491 14.97990 -0.81482 1.87479 -29.00930 -68.85870 -23.08690 15.78170 15.80220 41.20000 19.62010 -29.41660 -30.86480 4.52410 3.27144 7.58171 -50.00590 9.03513 
24.44200 93.19170 -35.39800 -11.10200 -14.55400 -26.50400 -0.96962 14.28420 -0.20114 -1.97921 28.79300 1.71360 10.43190 -25.19050 10.85440 -0.00000 0.00000 -0.00000 -90.81280 -54.64220 -68.73820 -35.17270 38.03650 -77.41570 13.66470 8.18349 -10.89070 14.90200 1.00827 3.16087 80.73420 -5.35091 70.67730 9.19054 28.26460 92.07540 26.77830 12.29260 5.61153 21.82550 -6.38538 -14.85830 -23.71620 10.94930 62.73400 3.64869 16.22450 -0.87042 2.56050 -27.56870 -68.36880 -22.51140 15.83970 15.52410 41.24720 19.42570 -31.11590 -31.93670 3.62076 3.13201 7.74332 -50.77690 9.02587 
23.90730 93.20870 -36.28340 -10.43730 -14.63360 -25.14750 -0.93654 14.34960 -0.10423 -2.22933 28.87280 1.98419 10.22910 -25.63460 9.29423 -0.00000 0.00000 -0.00000 -87.87320 -54.98570 -64.57740 -35.73290 37.85000 -77.54870 13.06010 8.29869 -10.57490 14.49420 0.94744 2.91270 80.54380 -5.81832 71.68340 9.21136 27.84300 90.81440 27.02720 12.32900 5.66898 22.17860 -7.05273 -14.72590 -24.07270 9.79704 61.36370 3.09999 18.08890 -0.81805 3.66590 -25.13160 -67.58480 -21.98610 16.02510 15.32640 41.12920 18.71160 -32.29830 -32.72740 2.74325 2.95479 7.66357 -50.95640 8.70206 
23.30400 93.36100 -37.17880 -9.57199 -14.62840 -23.59930 -1.02481 14.35980 0.01255 -2.55167 28.81450 2.23170 10.08670 -25.86780 7.57164 -0.00000 0.00000 -0.00000 -84.61010 -55.12030 -60.26900 -35.96900 37.53780 -77.85130 12.32150 8.44162 -10.12050 13.95820 0.87148 2.59364 80.34410 -6.53173 72.76240 9.18261 27.35610 89.54750 27.10280 12.38080 5.85296 22.68560 -7.95959 -14.16200 -24.86870 8.64502 60.34060 2.09766 20.47080 -0.65173 4.92573 -22.17160 -66.47190 -21.56570 16.33480 15.14690 40.89930 17.53150 -32.96270 -33.23630 1.83233 2.72886 7.27535 -50.30420 7.99943 
22.63910 93.66610 -38.05440 -8.49200 -14.61380 -21.92100 -1.31158 14.33570 0.17031 -2.97661 28.65400 2.49803 10.01220 -25.94190 5.69142 -0.00000 0.00000 -0.00000 -81.29760 -54.99070 -56.09910 -35.95540 37.11250 -78.24730 11.50650 8.59469 -9.59235 13.39120 0.78274 2.18335 79.96170 -7.58213 73.77880 8.86255 26.80040 88.41970 26.93370 12.45480 6.22275 23.24300 -9.14051 -13.13080 -26.25300 7.97045 60.29480 0.97918 23.00400 -0.41533 5.88098 -19.72970 -65.10270 -21.35820 16.78760 15.03330 40.62110 15.94870 -33.16780 -33.41740 0.94499 2.47433 6.63781 -48.71740 7.04753 
21.93110 94.16400 -38.87550 -7.19039 -14.66740 -20.16220 -1.93536 14.32150 0.38345 -3.51852 28.44920 2.80325 10.01020 -25.91330 3.67458 -0.00000 0.00000 -0.00000 -78.20720 -54.60350 -52.37930 -35.77350 36.60520 -78.62290 10.74570 8.73191 -9.08341 12.91550 0.69328 1.72326 79.23140 -9.05430 74.59060 8.11173 26.19800 87.51530 26.52350 12.52890 6.69682 23.68400 -10.71570 -11.61410 -28.32850 8.61125 61.65990 0.02910 25.12870 -0.17539 6.18015 -18.84410 -63.84500 -21.46940 17.42670 15.07140 40.31710 13.96170 -32.99550 -33.29780 0.39297 2.29644 5.93392 -46.47520 6.10906 
21.19630 94.92250 -39.62210 -5.67013 -14.79950 -18.34130 -3.08349 14.36830 0.65279 -4.15105 28.24420 3.13228 10.08590 -25.80350 1.60027 -0.00000 0.00000 -0.00000 -75.51840 -53.94100 -49.34420 -35.33250 36.00680 -78.99860 10.19660 8.82991 -8.67569 12.61600 0.61509 1.27924 78.06580 -10.96160 75.06270 7.02694 25.56750 86.77030 25.99530 12.56570 7.07862 23.88830 -12.88880 -9.43916 -31.11500 11.57150 64.42400 -0.79577 26.33600 0.06123 5.91087 -19.52680 -63.29930 -21.94080 18.25330 15.30720 39.97120 11.51770 -32.52780 -32.99950 0.69326 2.36411 5.32953 -44.16190 5.35450 
20.43970 96.01070 -40.28970 -3.95610 -14.94740 -16.46700 -4.89343 14.50250 0.96389 -4.81994 28.05440 3.44340 10.26110 -25.61370 -0.37567 -0.00000 0.00000 -0.00000 -73.36460 -52.95270 -47.15520 -34.39900 35.29200 -79.51630 10.00880 8.87324 -8.40406 12.52950 0.54637 0.84874 76.45170 -13.15170 75.08360 5.83547 24.89030 86.00540 25.52430 12.54790 7.21188 23.92590 -15.60570 -6.23048 -34.55990 17.24430 68.15870 -1.54757 26.45220 0.28483 5.44218 -20.81250 -63.79580 -22.74120 19.16360 15.69470 39.59740 8.64257 -31.84680 -32.64880 2.34236 2.82767 4.87700 -42.30410 4.73967 
19.65940 97.46210 -40.86850 -2.11235 -15.03080 -14.58850 -7.36045 14.69690 1.30095 -5.47199 27.86840 3.67824 10.54020 -25.32820 -2.07459 -0.00000 0.00000 -0.00000 -71.80550 -51.61170 -45.86660 -32.83650 34.44640 -80.27640 10.30080 8.85329 -8.25577 12.68760 0.47556 0.36934 74.39260 -15.33500 74.57600 4.70223 24.12160 85.03020 25.20440 12.48800 7.09452 23.92910 -18.37500 -1.45889 -38.24660 25.23480 71.94490 -1.97022 25.59540 0.40077 5.11974 -21.67870 -64.86270 -23.80820 19.97320 16.07850 39.28860 5.51791 -31.06160 -32.33110 5.63091 3.76564 4.53622 -41.03960 4.11776 
18.86320 99.21200 -41.31650 -0.25019 -15.01790 -12.84050 -10.30850 14.86290 1.67630 -6.07098 27.66890 3.75906 10.88360 -24.92580 -3.35898 -0.00000 0.00000 -0.00000 -70.74020 -49.94190 -45.39030 -30.77750 33.42930 -81.25250 11.11810 8.77057 -8.17990 13.12470 0.39746 -0.17381 71.91690 -17.21290 73.51860 3.68665 23.22030 83.71600 25.00110 12.40810 6.83265 23.63850 -20.82740 5.47125 -40.64190 35.63730 73.94090 -2.20582 23.76540 0.44454 5.34495 -21.10560 -65.06110 -24.97240 20.06130 16.04400 39.25180 3.37852 -30.59730 -31.88990 10.15070 5.01992 4.21200 -39.90900 3.40791 
18.10950 101.03000 -41.52580 1.33014 -14.93340 -11.43110 -13.06340 14.83320 2.06749 -6.50380 27.43390 3.59312 11.23980 -24.44500 -4.15236 -0.00000 0.00000 -0.00000 -69.96140 -48.05130 -45.57580 -28.59880 32.19940 -82.29150 12.37950 8.63846 -8.12477 13.83180 0.31785 -0.71625 69.14260 -18.56600 71.98080 2.81419 22.15640 82.01080 24.81120 12.32590 6.55034 22.49800 -23.35610 14.86430 -38.39500 49.67180 70.54440 -3.76852 20.29690 0.77831 6.86810 -16.69590 -61.94750 -25.84030 18.65590 15.02590 39.62550 4.08320 -30.96030 -30.97630 14.95520 6.21938 3.73617 -37.61990 2.55328 
17.52450 102.63500 -41.34660 1.96365 -14.79930 -10.49430 -14.13060 14.44000 2.24998 -6.50650 27.12710 3.10485 11.56420 -23.97440 -4.45032 -0.00000 0.00000 -0.00000 -69.27340 -46.10760 -46.28920 -26.70760 30.78460 -83.17890 13.89700 8.47612 -8.09797 14.74430 0.24797 -1.16892 66.25980 -19.31050 70.10410 2.09925 20.92390 79.94030 24.54100 12.26300 6.38495 20.49400 -26.09570 25.98970 -21.95200 66.03640 51.90570 -9.14926 13.81670 1.61117 9.93446 -2.11282 -52.53300 -26.14040 17.25850 13.30200 40.20600 5.04112 -31.34370 -30.50620 20.70840 7.72185 2.91755 -32.12190 1.37924 
17.07480 103.83100 -40.85210 1.72039 -14.67430 -9.92758 -13.63930 13.82400 2.21910 -6.11741 26.82120 2.28216 11.81800 -23.53480 -4.34255 -0.00000 0.00000 -0.00000 -68.53890 -44.24090 -47.41270 -25.30400 29.26800 -83.72230 15.44420 8.29620 -8.18308 15.77700 0.19903 -1.46787 63.44820 -19.52740 68.02370 1.50368 19.58920 77.61640 24.16410 12.24320 6.46051 19.03510 -27.21040 34.95040 19.88530 74.45210 9.46994 -17.42320 6.37577 2.08887 10.18620 20.70480 -39.27210 -25.53500 13.75160 10.05380 41.46660 10.62810 -32.81950 -29.36560 24.73780 8.50852 1.90499 -22.67200 -0.00542 
16.65610 104.78100 -40.20630 1.19324 -14.57520 -9.46178 -12.87900 13.20480 2.09036 -5.54211 26.56220 1.17133 11.98300 -23.05780 -4.00882 -0.00000 0.00000 -0.00000 -67.66840 -42.45370 -48.83220 -24.32880 27.66770 -83.78580 16.74920 8.11015 -8.48131 16.86810 0.17468 -1.61072 60.82260 -19.40910 65.81100 0.90875 18.31930 75.22680 23.74740 12.27080 6.77777 19.20960 -25.64390 39.27360 50.40810 74.46560 -19.14730 -22.58210 2.43134 1.98081 7.14987 33.18300 -29.70890 -24.97990 9.90956 6.27081 43.21680 16.72060 -34.31940 -28.69520 27.92490 9.15452 1.16691 -13.17290 -0.79147 
16.27740 105.43800 -39.41510 0.61577 -14.45440 -8.98327 -12.14450 12.57490 1.92309 -4.84419 26.25560 -0.15601 12.06960 -22.50260 -3.65484 -0.00000 0.00000 -0.00000 -66.58230 -40.55450 -50.46030 -23.58050 25.78600 -83.31540 17.46620 7.95114 -9.00803 18.01230 0.16856 -1.65018 58.39930 -19.18310 63.45770 0.15739 17.31980 72.98050 23.41890 12.32520 7.19006 19.90850 -22.30800 41.02500 62.16710 73.27940 -28.94300 -24.90700 0.53554 1.78976 4.56830 37.78060 -24.23440 -24.68820 6.19505 2.27689 45.22500 22.23590 -35.35470 -28.43630 29.99470 9.61842 0.78636 -8.18224 -0.37749 
15.94980 105.84700 -38.50060 0.29033 -14.24120 -8.34387 -11.82570 11.90140 1.77569 -4.13580 25.80120 -1.63634 12.10080 -21.91790 -3.41871 -0.00000 0.00000 -0.00000 -65.17980 -38.18630 -52.25640 -22.87640 23.19160 -82.37780 17.28470 7.87772 -9.65681 19.24980 0.17281 -1.63793 56.08200 -19.06400 60.88190 -0.82842 16.70380 71.02700 23.29380 12.38150 7.51931 20.93810 -17.33450 39.40080 54.87510 74.43930 -20.55400 -22.65990 1.17729 1.74612 5.88802 33.72290 -26.98460 -24.85470 2.85654 -1.65837 47.16680 26.40420 -35.81800 -28.38720 30.84090 9.82641 0.64038 -7.75646 1.12947 
